<svg width="738" height="199" viewBox="0 0 738 199" fill="none" xmlns="http://www.w3.org/2000/svg">
<circle cx="556.48" cy="18.5775" r="3.59292" fill="#625D5D" fill-opacity="0.3"/>
<circle cx="556.48" cy="99.4182" r="3.59292" fill="#625D5D" fill-opacity="0.3"/>
<circle cx="556.48" cy="34.7456" r="3.59292" fill="#625D5D" fill-opacity="0.3"/>
<circle cx="556.48" cy="115.586" r="3.59292" fill="#625D5D" fill-opacity="0.3"/>
<circle cx="556.48" cy="50.9137" r="3.59292" fill="#625D5D" fill-opacity="0.3"/>
<circle cx="556.48" cy="131.754" r="3.59292" fill="#625D5D" fill-opacity="0.3"/>
<circle cx="556.48" cy="67.0818" r="3.59292" fill="#625D5D" fill-opacity="0.3"/>
<circle cx="556.48" cy="147.923" r="3.59292" fill="#625D5D" fill-opacity="0.3"/>
<circle cx="556.48" cy="83.2501" r="3.59292" fill="#625D5D" fill-opacity="0.3"/>
<circle cx="556.48" cy="164.091" r="3.59292" fill="#625D5D" fill-opacity="0.3"/>
<circle cx="556.48" cy="180.259" r="3.59292" fill="#625D5D" fill-opacity="0.3"/>
<circle cx="646.303" cy="180.259" r="3.59292" fill="#625D5D" fill-opacity="0.3"/>
<circle cx="628.338" cy="18.5775" r="3.59292" fill="#625D5D" fill-opacity="0.3"/>
<circle cx="628.338" cy="99.4182" r="3.59292" fill="#625D5D" fill-opacity="0.3"/>
<circle cx="628.338" cy="34.7456" r="3.59292" fill="#625D5D" fill-opacity="0.3"/>
<circle cx="628.338" cy="115.586" r="3.59292" fill="#625D5D" fill-opacity="0.3"/>
<circle cx="628.338" cy="50.9137" r="3.59292" fill="#625D5D" fill-opacity="0.3"/>
<circle cx="628.338" cy="131.754" r="3.59292" fill="#625D5D" fill-opacity="0.3"/>
<circle cx="628.338" cy="67.0818" r="3.59292" fill="#625D5D" fill-opacity="0.3"/>
<circle cx="628.338" cy="147.923" r="3.59292" fill="#625D5D" fill-opacity="0.3"/>
<circle cx="628.338" cy="83.2501" r="3.59292" fill="#625D5D" fill-opacity="0.3"/>
<circle cx="628.338" cy="164.091" r="3.59292" fill="#625D5D" fill-opacity="0.3"/>
<circle cx="628.338" cy="180.259" r="3.59292" fill="#625D5D" fill-opacity="0.3"/>
<circle cx="718.161" cy="180.259" r="3.59292" fill="#625D5D" fill-opacity="0.3"/>
<circle cx="574.444" cy="18.5775" r="3.59292" fill="#625D5D" fill-opacity="0.3"/>
<circle cx="574.444" cy="99.4182" r="3.59292" fill="#625D5D" fill-opacity="0.3"/>
<circle cx="574.444" cy="34.7456" r="3.59292" fill="#625D5D" fill-opacity="0.3"/>
<circle cx="574.444" cy="115.586" r="3.59292" fill="#625D5D" fill-opacity="0.3"/>
<circle cx="574.444" cy="50.9137" r="3.59292" fill="#625D5D" fill-opacity="0.3"/>
<circle cx="574.444" cy="131.754" r="3.59292" fill="#625D5D" fill-opacity="0.3"/>
<circle cx="574.444" cy="67.0818" r="3.59292" fill="#625D5D" fill-opacity="0.3"/>
<circle cx="574.444" cy="147.923" r="3.59292" fill="#625D5D" fill-opacity="0.3"/>
<circle cx="574.444" cy="83.2501" r="3.59292" fill="#625D5D" fill-opacity="0.3"/>
<circle cx="574.444" cy="164.091" r="3.59292" fill="#625D5D" fill-opacity="0.3"/>
<circle cx="574.444" cy="180.259" r="3.59292" fill="#625D5D" fill-opacity="0.3"/>
<circle cx="664.267" cy="180.259" r="3.59292" fill="#625D5D" fill-opacity="0.3"/>
<circle cx="646.303" cy="18.5775" r="3.59292" fill="#625D5D" fill-opacity="0.3"/>
<circle cx="646.303" cy="99.4182" r="3.59292" fill="#625D5D" fill-opacity="0.3"/>
<circle cx="646.303" cy="34.7456" r="3.59292" fill="#625D5D" fill-opacity="0.3"/>
<circle cx="646.303" cy="115.586" r="3.59292" fill="#625D5D" fill-opacity="0.3"/>
<circle cx="646.303" cy="50.9137" r="3.59292" fill="#625D5D" fill-opacity="0.3"/>
<circle cx="646.303" cy="131.754" r="3.59292" fill="#625D5D" fill-opacity="0.3"/>
<circle cx="646.303" cy="67.0818" r="3.59292" fill="#625D5D" fill-opacity="0.3"/>
<circle cx="646.303" cy="147.923" r="3.59292" fill="#625D5D" fill-opacity="0.3"/>
<circle cx="646.303" cy="83.2501" r="3.59292" fill="#625D5D" fill-opacity="0.3"/>
<circle cx="646.303" cy="164.091" r="3.59292" fill="#625D5D" fill-opacity="0.3"/>
<circle cx="592.409" cy="18.5775" r="3.59292" fill="#625D5D" fill-opacity="0.3"/>
<circle cx="592.409" cy="99.4182" r="3.59292" fill="#625D5D" fill-opacity="0.3"/>
<circle cx="592.409" cy="34.7456" r="3.59292" fill="#625D5D" fill-opacity="0.3"/>
<circle cx="592.409" cy="115.586" r="3.59292" fill="#625D5D" fill-opacity="0.3"/>
<circle cx="592.409" cy="50.9137" r="3.59292" fill="#625D5D" fill-opacity="0.3"/>
<circle cx="592.409" cy="131.754" r="3.59292" fill="#625D5D" fill-opacity="0.3"/>
<circle cx="592.409" cy="67.0818" r="3.59292" fill="#625D5D" fill-opacity="0.3"/>
<circle cx="592.409" cy="147.923" r="3.59292" fill="#625D5D" fill-opacity="0.3"/>
<circle cx="592.409" cy="83.2501" r="3.59292" fill="#625D5D" fill-opacity="0.3"/>
<circle cx="592.409" cy="164.091" r="3.59292" fill="#625D5D" fill-opacity="0.3"/>
<circle cx="592.409" cy="180.259" r="3.59292" fill="#625D5D" fill-opacity="0.3"/>
<circle cx="682.232" cy="180.259" r="3.59292" fill="#625D5D" fill-opacity="0.3"/>
<circle cx="664.267" cy="18.5775" r="3.59292" fill="#625D5D" fill-opacity="0.3"/>
<circle cx="664.267" cy="99.4182" r="3.59292" fill="#625D5D" fill-opacity="0.3"/>
<circle cx="664.267" cy="34.7456" r="3.59292" fill="#625D5D" fill-opacity="0.3"/>
<circle cx="664.267" cy="115.586" r="3.59292" fill="#625D5D" fill-opacity="0.3"/>
<circle cx="664.267" cy="50.9137" r="3.59292" fill="#625D5D" fill-opacity="0.3"/>
<circle cx="664.267" cy="131.754" r="3.59292" fill="#625D5D" fill-opacity="0.3"/>
<circle cx="664.267" cy="67.0818" r="3.59292" fill="#625D5D" fill-opacity="0.3"/>
<circle cx="664.267" cy="147.923" r="3.59292" fill="#625D5D" fill-opacity="0.3"/>
<circle cx="664.267" cy="83.2501" r="3.59292" fill="#625D5D" fill-opacity="0.3"/>
<circle cx="664.267" cy="164.091" r="3.59292" fill="#625D5D" fill-opacity="0.3"/>
<circle cx="610.374" cy="18.5775" r="3.59292" fill="#625D5D" fill-opacity="0.3"/>
<circle cx="610.374" cy="99.4182" r="3.59292" fill="#625D5D" fill-opacity="0.3"/>
<circle cx="610.374" cy="34.7456" r="3.59292" fill="#625D5D" fill-opacity="0.3"/>
<circle cx="610.374" cy="115.586" r="3.59292" fill="#625D5D" fill-opacity="0.3"/>
<circle cx="610.374" cy="50.9137" r="3.59292" fill="#625D5D" fill-opacity="0.3"/>
<circle cx="610.374" cy="131.754" r="3.59292" fill="#625D5D" fill-opacity="0.3"/>
<circle cx="610.374" cy="67.0818" r="3.59292" fill="#625D5D" fill-opacity="0.3"/>
<circle cx="610.374" cy="147.923" r="3.59292" fill="#625D5D" fill-opacity="0.3"/>
<circle cx="610.374" cy="83.2501" r="3.59292" fill="#625D5D" fill-opacity="0.3"/>
<circle cx="610.374" cy="164.091" r="3.59292" fill="#625D5D" fill-opacity="0.3"/>
<circle cx="610.374" cy="180.259" r="3.59292" fill="#625D5D" fill-opacity="0.3"/>
<circle cx="700.197" cy="180.259" r="3.59292" fill="#625D5D" fill-opacity="0.3"/>
<circle cx="682.232" cy="18.5775" r="3.59292" fill="#625D5D" fill-opacity="0.3"/>
<circle cx="682.232" cy="99.4182" r="3.59292" fill="#625D5D" fill-opacity="0.3"/>
<circle cx="682.232" cy="34.7456" r="3.59292" fill="#625D5D" fill-opacity="0.3"/>
<circle cx="682.232" cy="115.586" r="3.59292" fill="#625D5D" fill-opacity="0.3"/>
<circle cx="682.232" cy="50.9137" r="3.59292" fill="#625D5D" fill-opacity="0.3"/>
<circle cx="682.232" cy="131.754" r="3.59292" fill="#625D5D" fill-opacity="0.3"/>
<circle cx="682.232" cy="67.0818" r="3.59292" fill="#625D5D" fill-opacity="0.3"/>
<circle cx="682.232" cy="147.923" r="3.59292" fill="#625D5D" fill-opacity="0.3"/>
<circle cx="682.232" cy="83.2501" r="3.59292" fill="#625D5D" fill-opacity="0.3"/>
<circle cx="682.232" cy="164.091" r="3.59292" fill="#625D5D" fill-opacity="0.3"/>
<circle cx="700.197" cy="18.5775" r="3.59292" fill="#625D5D" fill-opacity="0.3"/>
<circle cx="700.197" cy="99.4182" r="3.59292" fill="#625D5D" fill-opacity="0.3"/>
<circle cx="700.197" cy="34.7456" r="3.59292" fill="#625D5D" fill-opacity="0.3"/>
<circle cx="700.197" cy="115.586" r="3.59292" fill="#625D5D" fill-opacity="0.3"/>
<circle cx="700.197" cy="50.9137" r="3.59292" fill="#625D5D" fill-opacity="0.3"/>
<circle cx="700.197" cy="131.754" r="3.59292" fill="#625D5D" fill-opacity="0.3"/>
<circle cx="700.197" cy="67.0818" r="3.59292" fill="#625D5D" fill-opacity="0.3"/>
<circle cx="700.197" cy="147.923" r="3.59292" fill="#625D5D" fill-opacity="0.3"/>
<circle cx="700.197" cy="83.2501" r="3.59292" fill="#625D5D" fill-opacity="0.3"/>
<circle cx="700.197" cy="164.091" r="3.59292" fill="#625D5D" fill-opacity="0.3"/>
<circle cx="718.161" cy="18.5775" r="3.59292" fill="#625D5D" fill-opacity="0.3"/>
<circle cx="718.161" cy="99.4182" r="3.59292" fill="#625D5D" fill-opacity="0.3"/>
<circle cx="718.161" cy="34.7456" r="3.59292" fill="#625D5D" fill-opacity="0.3"/>
<circle cx="718.161" cy="115.586" r="3.59292" fill="#625D5D" fill-opacity="0.3"/>
<circle cx="718.161" cy="50.9137" r="3.59292" fill="#625D5D" fill-opacity="0.3"/>
<circle cx="718.161" cy="131.754" r="3.59292" fill="#625D5D" fill-opacity="0.3"/>
<circle cx="718.161" cy="67.0818" r="3.59292" fill="#625D5D" fill-opacity="0.3"/>
<circle cx="718.161" cy="147.923" r="3.59292" fill="#625D5D" fill-opacity="0.3"/>
<circle cx="718.161" cy="83.2501" r="3.59292" fill="#625D5D" fill-opacity="0.3"/>
<circle cx="718.161" cy="164.091" r="3.59292" fill="#625D5D" fill-opacity="0.3"/>
<circle cx="376.168" cy="17.9646" r="3.59292" fill="#625D5D" fill-opacity="0.3"/>
<circle cx="376.168" cy="98.8052" r="3.59292" fill="#625D5D" fill-opacity="0.3"/>
<circle cx="376.168" cy="34.1327" r="3.59292" fill="#625D5D" fill-opacity="0.3"/>
<circle cx="376.168" cy="114.973" r="3.59292" fill="#625D5D" fill-opacity="0.3"/>
<circle cx="376.168" cy="50.3008" r="3.59292" fill="#625D5D" fill-opacity="0.3"/>
<circle cx="376.168" cy="131.142" r="3.59292" fill="#625D5D" fill-opacity="0.3"/>
<circle cx="376.168" cy="66.4689" r="3.59292" fill="#625D5D" fill-opacity="0.3"/>
<circle cx="376.168" cy="147.31" r="3.59292" fill="#625D5D" fill-opacity="0.3"/>
<circle cx="376.168" cy="82.6371" r="3.59292" fill="#625D5D" fill-opacity="0.3"/>
<circle cx="376.168" cy="163.478" r="3.59292" fill="#625D5D" fill-opacity="0.3"/>
<circle cx="376.168" cy="179.646" r="3.59292" fill="#625D5D" fill-opacity="0.3"/>
<circle cx="465.991" cy="179.646" r="3.59292" fill="#625D5D" fill-opacity="0.3"/>
<circle cx="448.027" cy="17.9646" r="3.59292" fill="#625D5D" fill-opacity="0.3"/>
<circle cx="448.027" cy="98.8052" r="3.59292" fill="#625D5D" fill-opacity="0.3"/>
<circle cx="448.027" cy="34.1327" r="3.59292" fill="#625D5D" fill-opacity="0.3"/>
<circle cx="448.027" cy="114.973" r="3.59292" fill="#625D5D" fill-opacity="0.3"/>
<circle cx="448.027" cy="50.3008" r="3.59292" fill="#625D5D" fill-opacity="0.3"/>
<circle cx="448.027" cy="131.142" r="3.59292" fill="#625D5D" fill-opacity="0.3"/>
<circle cx="448.027" cy="66.4689" r="3.59292" fill="#625D5D" fill-opacity="0.3"/>
<circle cx="448.027" cy="147.31" r="3.59292" fill="#625D5D" fill-opacity="0.3"/>
<circle cx="448.027" cy="82.6371" r="3.59292" fill="#625D5D" fill-opacity="0.3"/>
<circle cx="448.027" cy="163.478" r="3.59292" fill="#625D5D" fill-opacity="0.3"/>
<circle cx="448.027" cy="179.646" r="3.59292" fill="#625D5D" fill-opacity="0.3"/>
<circle cx="537.849" cy="179.646" r="3.59292" fill="#625D5D" fill-opacity="0.3"/>
<circle cx="394.133" cy="17.9646" r="3.59292" fill="#625D5D" fill-opacity="0.3"/>
<circle cx="394.133" cy="98.8052" r="3.59292" fill="#625D5D" fill-opacity="0.3"/>
<circle cx="394.133" cy="34.1327" r="3.59292" fill="#625D5D" fill-opacity="0.3"/>
<circle cx="394.133" cy="114.973" r="3.59292" fill="#625D5D" fill-opacity="0.3"/>
<circle cx="394.133" cy="50.3008" r="3.59292" fill="#625D5D" fill-opacity="0.3"/>
<circle cx="394.133" cy="131.142" r="3.59292" fill="#625D5D" fill-opacity="0.3"/>
<circle cx="394.133" cy="66.4689" r="3.59292" fill="#625D5D" fill-opacity="0.3"/>
<circle cx="394.133" cy="147.31" r="3.59292" fill="#625D5D" fill-opacity="0.3"/>
<circle cx="394.133" cy="82.6371" r="3.59292" fill="#625D5D" fill-opacity="0.3"/>
<circle cx="394.133" cy="163.478" r="3.59292" fill="#625D5D" fill-opacity="0.3"/>
<circle cx="394.133" cy="179.646" r="3.59292" fill="#625D5D" fill-opacity="0.3"/>
<circle cx="483.956" cy="179.646" r="3.59292" fill="#625D5D" fill-opacity="0.3"/>
<circle cx="465.991" cy="17.9646" r="3.59292" fill="#625D5D" fill-opacity="0.3"/>
<circle cx="465.991" cy="98.8052" r="3.59292" fill="#625D5D" fill-opacity="0.3"/>
<circle cx="465.991" cy="34.1327" r="3.59292" fill="#625D5D" fill-opacity="0.3"/>
<circle cx="465.991" cy="114.973" r="3.59292" fill="#625D5D" fill-opacity="0.3"/>
<circle cx="465.991" cy="50.3008" r="3.59292" fill="#625D5D" fill-opacity="0.3"/>
<circle cx="465.991" cy="131.142" r="3.59292" fill="#625D5D" fill-opacity="0.3"/>
<circle cx="465.991" cy="66.4689" r="3.59292" fill="#625D5D" fill-opacity="0.3"/>
<circle cx="465.991" cy="147.31" r="3.59292" fill="#625D5D" fill-opacity="0.3"/>
<circle cx="465.991" cy="82.6371" r="3.59292" fill="#625D5D" fill-opacity="0.3"/>
<circle cx="465.991" cy="163.478" r="3.59292" fill="#625D5D" fill-opacity="0.3"/>
<circle cx="412.097" cy="17.9646" r="3.59292" fill="#625D5D" fill-opacity="0.3"/>
<circle cx="412.097" cy="98.8052" r="3.59292" fill="#625D5D" fill-opacity="0.3"/>
<circle cx="412.097" cy="34.1327" r="3.59292" fill="#625D5D" fill-opacity="0.3"/>
<circle cx="412.097" cy="114.973" r="3.59292" fill="#625D5D" fill-opacity="0.3"/>
<circle cx="412.097" cy="50.3008" r="3.59292" fill="#625D5D" fill-opacity="0.3"/>
<circle cx="412.097" cy="131.142" r="3.59292" fill="#625D5D" fill-opacity="0.3"/>
<circle cx="412.097" cy="66.4689" r="3.59292" fill="#625D5D" fill-opacity="0.3"/>
<circle cx="412.097" cy="147.31" r="3.59292" fill="#625D5D" fill-opacity="0.3"/>
<circle cx="412.097" cy="82.6371" r="3.59292" fill="#625D5D" fill-opacity="0.3"/>
<circle cx="412.097" cy="163.478" r="3.59292" fill="#625D5D" fill-opacity="0.3"/>
<circle cx="412.097" cy="179.646" r="3.59292" fill="#625D5D" fill-opacity="0.3"/>
<circle cx="501.92" cy="179.646" r="3.59292" fill="#625D5D" fill-opacity="0.3"/>
<circle cx="483.956" cy="17.9646" r="3.59292" fill="#625D5D" fill-opacity="0.3"/>
<circle cx="483.956" cy="98.8052" r="3.59292" fill="#625D5D" fill-opacity="0.3"/>
<circle cx="483.956" cy="34.1327" r="3.59292" fill="#625D5D" fill-opacity="0.3"/>
<circle cx="483.956" cy="114.973" r="3.59292" fill="#625D5D" fill-opacity="0.3"/>
<circle cx="483.956" cy="50.3008" r="3.59292" fill="#625D5D" fill-opacity="0.3"/>
<circle cx="483.956" cy="131.142" r="3.59292" fill="#625D5D" fill-opacity="0.3"/>
<circle cx="483.956" cy="66.4689" r="3.59292" fill="#625D5D" fill-opacity="0.3"/>
<circle cx="483.956" cy="147.31" r="3.59292" fill="#625D5D" fill-opacity="0.3"/>
<circle cx="483.956" cy="82.6371" r="3.59292" fill="#625D5D" fill-opacity="0.3"/>
<circle cx="483.956" cy="163.478" r="3.59292" fill="#625D5D" fill-opacity="0.3"/>
<circle cx="430.062" cy="17.9646" r="3.59292" fill="#625D5D" fill-opacity="0.3"/>
<circle cx="430.062" cy="98.8052" r="3.59292" fill="#625D5D" fill-opacity="0.3"/>
<circle cx="430.062" cy="34.1327" r="3.59292" fill="#625D5D" fill-opacity="0.3"/>
<circle cx="430.062" cy="114.973" r="3.59292" fill="#625D5D" fill-opacity="0.3"/>
<circle cx="430.062" cy="50.3008" r="3.59292" fill="#625D5D" fill-opacity="0.3"/>
<circle cx="430.062" cy="131.142" r="3.59292" fill="#625D5D" fill-opacity="0.3"/>
<circle cx="430.062" cy="66.4689" r="3.59292" fill="#625D5D" fill-opacity="0.3"/>
<circle cx="430.062" cy="147.31" r="3.59292" fill="#625D5D" fill-opacity="0.3"/>
<circle cx="430.062" cy="82.6371" r="3.59292" fill="#625D5D" fill-opacity="0.3"/>
<circle cx="430.062" cy="163.478" r="3.59292" fill="#625D5D" fill-opacity="0.3"/>
<circle cx="430.062" cy="179.646" r="3.59292" fill="#625D5D" fill-opacity="0.3"/>
<circle cx="519.885" cy="179.646" r="3.59292" fill="#625D5D" fill-opacity="0.3"/>
<circle cx="501.92" cy="17.9646" r="3.59292" fill="#625D5D" fill-opacity="0.3"/>
<circle cx="501.92" cy="98.8052" r="3.59292" fill="#625D5D" fill-opacity="0.3"/>
<circle cx="501.92" cy="34.1327" r="3.59292" fill="#625D5D" fill-opacity="0.3"/>
<circle cx="501.92" cy="114.973" r="3.59292" fill="#625D5D" fill-opacity="0.3"/>
<circle cx="501.92" cy="50.3008" r="3.59292" fill="#625D5D" fill-opacity="0.3"/>
<circle cx="501.92" cy="131.142" r="3.59292" fill="#625D5D" fill-opacity="0.3"/>
<circle cx="501.92" cy="66.4689" r="3.59292" fill="#625D5D" fill-opacity="0.3"/>
<circle cx="501.92" cy="147.31" r="3.59292" fill="#625D5D" fill-opacity="0.3"/>
<circle cx="501.92" cy="82.6371" r="3.59292" fill="#625D5D" fill-opacity="0.3"/>
<circle cx="501.92" cy="163.478" r="3.59292" fill="#625D5D" fill-opacity="0.3"/>
<circle cx="519.885" cy="17.9646" r="3.59292" fill="#625D5D" fill-opacity="0.3"/>
<circle cx="519.885" cy="98.8052" r="3.59292" fill="#625D5D" fill-opacity="0.3"/>
<circle cx="519.885" cy="34.1327" r="3.59292" fill="#625D5D" fill-opacity="0.3"/>
<circle cx="519.885" cy="114.973" r="3.59292" fill="#625D5D" fill-opacity="0.3"/>
<circle cx="519.885" cy="50.3008" r="3.59292" fill="#625D5D" fill-opacity="0.3"/>
<circle cx="519.885" cy="131.142" r="3.59292" fill="#625D5D" fill-opacity="0.3"/>
<circle cx="519.885" cy="66.4689" r="3.59292" fill="#625D5D" fill-opacity="0.3"/>
<circle cx="519.885" cy="147.31" r="3.59292" fill="#625D5D" fill-opacity="0.3"/>
<circle cx="519.885" cy="82.6371" r="3.59292" fill="#625D5D" fill-opacity="0.3"/>
<circle cx="519.885" cy="163.478" r="3.59292" fill="#625D5D" fill-opacity="0.3"/>
<circle cx="537.849" cy="17.9646" r="3.59292" fill="#625D5D" fill-opacity="0.3"/>
<circle cx="537.849" cy="98.8052" r="3.59292" fill="#625D5D" fill-opacity="0.3"/>
<circle cx="537.849" cy="34.1327" r="3.59292" fill="#625D5D" fill-opacity="0.3"/>
<circle cx="537.849" cy="114.973" r="3.59292" fill="#625D5D" fill-opacity="0.3"/>
<circle cx="537.849" cy="50.3008" r="3.59292" fill="#625D5D" fill-opacity="0.3"/>
<circle cx="537.849" cy="131.142" r="3.59292" fill="#625D5D" fill-opacity="0.3"/>
<circle cx="537.849" cy="66.4689" r="3.59292" fill="#625D5D" fill-opacity="0.3"/>
<circle cx="537.849" cy="147.31" r="3.59292" fill="#625D5D" fill-opacity="0.3"/>
<circle cx="537.849" cy="82.6371" r="3.59292" fill="#625D5D" fill-opacity="0.3"/>
<circle cx="537.849" cy="163.478" r="3.59292" fill="#625D5D" fill-opacity="0.3"/>
<circle cx="198.168" cy="17.9646" r="3.59292" fill="#625D5D" fill-opacity="0.3"/>
<circle cx="198.168" cy="98.8052" r="3.59292" fill="#625D5D" fill-opacity="0.3"/>
<circle cx="198.168" cy="34.1327" r="3.59292" fill="#625D5D" fill-opacity="0.3"/>
<circle cx="198.168" cy="114.973" r="3.59292" fill="#625D5D" fill-opacity="0.3"/>
<circle cx="198.168" cy="50.3008" r="3.59292" fill="#625D5D" fill-opacity="0.3"/>
<circle cx="198.168" cy="131.142" r="3.59292" fill="#625D5D" fill-opacity="0.3"/>
<circle cx="198.168" cy="66.4689" r="3.59292" fill="#625D5D" fill-opacity="0.3"/>
<circle cx="198.168" cy="147.31" r="3.59292" fill="#625D5D" fill-opacity="0.3"/>
<circle cx="198.168" cy="82.6371" r="3.59292" fill="#625D5D" fill-opacity="0.3"/>
<circle cx="198.168" cy="163.478" r="3.59292" fill="#625D5D" fill-opacity="0.3"/>
<circle cx="198.168" cy="179.646" r="3.59292" fill="#625D5D" fill-opacity="0.3"/>
<circle cx="287.991" cy="179.646" r="3.59292" fill="#625D5D" fill-opacity="0.3"/>
<circle cx="270.027" cy="17.9646" r="3.59292" fill="#625D5D" fill-opacity="0.3"/>
<circle cx="270.027" cy="98.8052" r="3.59292" fill="#625D5D" fill-opacity="0.3"/>
<circle cx="270.027" cy="34.1327" r="3.59292" fill="#625D5D" fill-opacity="0.3"/>
<circle cx="270.027" cy="114.973" r="3.59292" fill="#625D5D" fill-opacity="0.3"/>
<circle cx="270.027" cy="50.3008" r="3.59292" fill="#625D5D" fill-opacity="0.3"/>
<circle cx="270.027" cy="131.142" r="3.59292" fill="#625D5D" fill-opacity="0.3"/>
<circle cx="270.027" cy="66.4689" r="3.59292" fill="#625D5D" fill-opacity="0.3"/>
<circle cx="270.027" cy="147.31" r="3.59292" fill="#625D5D" fill-opacity="0.3"/>
<circle cx="270.027" cy="82.6371" r="3.59292" fill="#625D5D" fill-opacity="0.3"/>
<circle cx="270.027" cy="163.478" r="3.59292" fill="#625D5D" fill-opacity="0.3"/>
<circle cx="270.027" cy="179.646" r="3.59292" fill="#625D5D" fill-opacity="0.3"/>
<circle cx="359.85" cy="179.646" r="3.59292" fill="#625D5D" fill-opacity="0.3"/>
<circle cx="216.133" cy="17.9646" r="3.59292" fill="#625D5D" fill-opacity="0.3"/>
<circle cx="216.133" cy="98.8052" r="3.59292" fill="#625D5D" fill-opacity="0.3"/>
<circle cx="216.133" cy="34.1327" r="3.59292" fill="#625D5D" fill-opacity="0.3"/>
<circle cx="216.133" cy="114.973" r="3.59292" fill="#625D5D" fill-opacity="0.3"/>
<circle cx="216.133" cy="50.3008" r="3.59292" fill="#625D5D" fill-opacity="0.3"/>
<circle cx="216.133" cy="131.142" r="3.59292" fill="#625D5D" fill-opacity="0.3"/>
<circle cx="216.133" cy="66.4689" r="3.59292" fill="#625D5D" fill-opacity="0.3"/>
<circle cx="216.133" cy="147.31" r="3.59292" fill="#625D5D" fill-opacity="0.3"/>
<circle cx="216.133" cy="82.6371" r="3.59292" fill="#625D5D" fill-opacity="0.3"/>
<circle cx="216.133" cy="163.478" r="3.59292" fill="#625D5D" fill-opacity="0.3"/>
<circle cx="216.133" cy="179.646" r="3.59292" fill="#625D5D" fill-opacity="0.3"/>
<circle cx="305.956" cy="179.646" r="3.59292" fill="#625D5D" fill-opacity="0.3"/>
<circle cx="287.991" cy="17.9646" r="3.59292" fill="#625D5D" fill-opacity="0.3"/>
<circle cx="287.991" cy="98.8052" r="3.59292" fill="#625D5D" fill-opacity="0.3"/>
<circle cx="287.991" cy="34.1327" r="3.59292" fill="#625D5D" fill-opacity="0.3"/>
<circle cx="287.991" cy="114.973" r="3.59292" fill="#625D5D" fill-opacity="0.3"/>
<circle cx="287.991" cy="50.3008" r="3.59292" fill="#625D5D" fill-opacity="0.3"/>
<circle cx="287.991" cy="131.142" r="3.59292" fill="#625D5D" fill-opacity="0.3"/>
<circle cx="287.991" cy="66.4689" r="3.59292" fill="#625D5D" fill-opacity="0.3"/>
<circle cx="287.991" cy="147.31" r="3.59292" fill="#625D5D" fill-opacity="0.3"/>
<circle cx="287.991" cy="82.6371" r="3.59292" fill="#625D5D" fill-opacity="0.3"/>
<circle cx="287.991" cy="163.478" r="3.59292" fill="#625D5D" fill-opacity="0.3"/>
<circle cx="234.097" cy="17.9646" r="3.59292" fill="#625D5D" fill-opacity="0.3"/>
<circle cx="234.097" cy="98.8052" r="3.59292" fill="#625D5D" fill-opacity="0.3"/>
<circle cx="234.097" cy="34.1327" r="3.59292" fill="#625D5D" fill-opacity="0.3"/>
<circle cx="234.097" cy="114.973" r="3.59292" fill="#625D5D" fill-opacity="0.3"/>
<circle cx="234.097" cy="50.3008" r="3.59292" fill="#625D5D" fill-opacity="0.3"/>
<circle cx="234.097" cy="131.142" r="3.59292" fill="#625D5D" fill-opacity="0.3"/>
<circle cx="234.097" cy="66.4689" r="3.59292" fill="#625D5D" fill-opacity="0.3"/>
<circle cx="234.097" cy="147.31" r="3.59292" fill="#625D5D" fill-opacity="0.3"/>
<circle cx="234.097" cy="82.6371" r="3.59292" fill="#625D5D" fill-opacity="0.3"/>
<circle cx="234.097" cy="163.478" r="3.59292" fill="#625D5D" fill-opacity="0.3"/>
<circle cx="234.097" cy="179.646" r="3.59292" fill="#625D5D" fill-opacity="0.3"/>
<circle cx="323.92" cy="179.646" r="3.59292" fill="#625D5D" fill-opacity="0.3"/>
<circle cx="305.956" cy="17.9646" r="3.59292" fill="#625D5D" fill-opacity="0.3"/>
<circle cx="305.956" cy="98.8052" r="3.59292" fill="#625D5D" fill-opacity="0.3"/>
<circle cx="305.956" cy="34.1327" r="3.59292" fill="#625D5D" fill-opacity="0.3"/>
<circle cx="305.956" cy="114.973" r="3.59292" fill="#625D5D" fill-opacity="0.3"/>
<circle cx="305.956" cy="50.3008" r="3.59292" fill="#625D5D" fill-opacity="0.3"/>
<circle cx="305.956" cy="131.142" r="3.59292" fill="#625D5D" fill-opacity="0.3"/>
<circle cx="305.956" cy="66.4689" r="3.59292" fill="#625D5D" fill-opacity="0.3"/>
<circle cx="305.956" cy="147.31" r="3.59292" fill="#625D5D" fill-opacity="0.3"/>
<circle cx="305.956" cy="82.6371" r="3.59292" fill="#625D5D" fill-opacity="0.3"/>
<circle cx="305.956" cy="163.478" r="3.59292" fill="#625D5D" fill-opacity="0.3"/>
<circle cx="252.062" cy="17.9646" r="3.59292" fill="#625D5D" fill-opacity="0.3"/>
<circle cx="252.062" cy="98.8052" r="3.59292" fill="#625D5D" fill-opacity="0.3"/>
<circle cx="252.062" cy="34.1327" r="3.59292" fill="#625D5D" fill-opacity="0.3"/>
<circle cx="252.062" cy="114.973" r="3.59292" fill="#625D5D" fill-opacity="0.3"/>
<circle cx="252.062" cy="50.3008" r="3.59292" fill="#625D5D" fill-opacity="0.3"/>
<circle cx="252.062" cy="131.142" r="3.59292" fill="#625D5D" fill-opacity="0.3"/>
<circle cx="252.062" cy="66.4689" r="3.59292" fill="#625D5D" fill-opacity="0.3"/>
<circle cx="252.062" cy="147.31" r="3.59292" fill="#625D5D" fill-opacity="0.3"/>
<circle cx="252.062" cy="82.6371" r="3.59292" fill="#625D5D" fill-opacity="0.3"/>
<circle cx="252.062" cy="163.478" r="3.59292" fill="#625D5D" fill-opacity="0.3"/>
<circle cx="252.062" cy="179.646" r="3.59292" fill="#625D5D" fill-opacity="0.3"/>
<circle cx="341.885" cy="179.646" r="3.59292" fill="#625D5D" fill-opacity="0.3"/>
<circle cx="323.92" cy="17.9646" r="3.59292" fill="#625D5D" fill-opacity="0.3"/>
<circle cx="323.92" cy="98.8052" r="3.59292" fill="#625D5D" fill-opacity="0.3"/>
<circle cx="323.92" cy="34.1327" r="3.59292" fill="#625D5D" fill-opacity="0.3"/>
<circle cx="323.92" cy="114.973" r="3.59292" fill="#625D5D" fill-opacity="0.3"/>
<circle cx="323.92" cy="50.3008" r="3.59292" fill="#625D5D" fill-opacity="0.3"/>
<circle cx="323.92" cy="131.142" r="3.59292" fill="#625D5D" fill-opacity="0.3"/>
<circle cx="323.92" cy="66.4689" r="3.59292" fill="#625D5D" fill-opacity="0.3"/>
<circle cx="323.92" cy="147.31" r="3.59292" fill="#625D5D" fill-opacity="0.3"/>
<circle cx="323.92" cy="82.6371" r="3.59292" fill="#625D5D" fill-opacity="0.3"/>
<circle cx="323.92" cy="163.478" r="3.59292" fill="#625D5D" fill-opacity="0.3"/>
<circle cx="341.885" cy="17.9646" r="3.59292" fill="#625D5D" fill-opacity="0.3"/>
<circle cx="341.885" cy="98.8052" r="3.59292" fill="#625D5D" fill-opacity="0.3"/>
<circle cx="341.885" cy="34.1327" r="3.59292" fill="#625D5D" fill-opacity="0.3"/>
<circle cx="341.885" cy="114.973" r="3.59292" fill="#625D5D" fill-opacity="0.3"/>
<circle cx="341.885" cy="50.3008" r="3.59292" fill="#625D5D" fill-opacity="0.3"/>
<circle cx="341.885" cy="131.142" r="3.59292" fill="#625D5D" fill-opacity="0.3"/>
<circle cx="341.885" cy="66.4689" r="3.59292" fill="#625D5D" fill-opacity="0.3"/>
<circle cx="341.885" cy="147.31" r="3.59292" fill="#625D5D" fill-opacity="0.3"/>
<circle cx="341.885" cy="82.6371" r="3.59292" fill="#625D5D" fill-opacity="0.3"/>
<circle cx="341.885" cy="163.478" r="3.59292" fill="#625D5D" fill-opacity="0.3"/>
<circle cx="359.85" cy="17.9646" r="3.59292" fill="#625D5D" fill-opacity="0.3"/>
<circle cx="359.85" cy="98.8052" r="3.59292" fill="#625D5D" fill-opacity="0.3"/>
<circle cx="359.85" cy="34.1327" r="3.59292" fill="#625D5D" fill-opacity="0.3"/>
<circle cx="359.85" cy="114.973" r="3.59292" fill="#625D5D" fill-opacity="0.3"/>
<circle cx="359.85" cy="50.3008" r="3.59292" fill="#625D5D" fill-opacity="0.3"/>
<circle cx="359.85" cy="131.142" r="3.59292" fill="#625D5D" fill-opacity="0.3"/>
<circle cx="359.85" cy="66.4689" r="3.59292" fill="#625D5D" fill-opacity="0.3"/>
<circle cx="359.85" cy="147.31" r="3.59292" fill="#625D5D" fill-opacity="0.3"/>
<circle cx="359.85" cy="82.6371" r="3.59292" fill="#625D5D" fill-opacity="0.3"/>
<circle cx="359.85" cy="163.478" r="3.59292" fill="#625D5D" fill-opacity="0.3"/>
<circle cx="16.1681" cy="17.9646" r="3.59292" fill="#625D5D" fill-opacity="0.3"/>
<circle cx="16.1681" cy="98.8052" r="3.59292" fill="#625D5D" fill-opacity="0.3"/>
<circle cx="16.1681" cy="34.1327" r="3.59292" fill="#625D5D" fill-opacity="0.3"/>
<circle cx="16.1681" cy="114.973" r="3.59292" fill="#625D5D" fill-opacity="0.3"/>
<circle cx="16.1681" cy="50.3008" r="3.59292" fill="#625D5D" fill-opacity="0.3"/>
<circle cx="16.1681" cy="131.142" r="3.59292" fill="#625D5D" fill-opacity="0.3"/>
<circle cx="16.1681" cy="66.4689" r="3.59292" fill="#625D5D" fill-opacity="0.3"/>
<circle cx="16.1681" cy="147.31" r="3.59292" fill="#625D5D" fill-opacity="0.3"/>
<circle cx="16.1681" cy="82.6371" r="3.59292" fill="#625D5D" fill-opacity="0.3"/>
<circle cx="16.1681" cy="163.478" r="3.59292" fill="#625D5D" fill-opacity="0.3"/>
<circle cx="16.1681" cy="179.646" r="3.59292" fill="#625D5D" fill-opacity="0.3"/>
<circle cx="105.991" cy="179.646" r="3.59292" fill="#625D5D" fill-opacity="0.3"/>
<circle cx="88.0265" cy="17.9646" r="3.59292" fill="#625D5D" fill-opacity="0.3"/>
<circle cx="88.0265" cy="98.8052" r="3.59292" fill="#625D5D" fill-opacity="0.3"/>
<circle cx="88.0265" cy="34.1327" r="3.59292" fill="#625D5D" fill-opacity="0.3"/>
<circle cx="88.0265" cy="114.973" r="3.59292" fill="#625D5D" fill-opacity="0.3"/>
<circle cx="88.0265" cy="50.3008" r="3.59292" fill="#625D5D" fill-opacity="0.3"/>
<circle cx="88.0265" cy="131.142" r="3.59292" fill="#625D5D" fill-opacity="0.3"/>
<circle cx="88.0265" cy="66.4689" r="3.59292" fill="#625D5D" fill-opacity="0.3"/>
<circle cx="88.0265" cy="147.31" r="3.59292" fill="#625D5D" fill-opacity="0.3"/>
<circle cx="88.0265" cy="82.6371" r="3.59292" fill="#625D5D" fill-opacity="0.3"/>
<circle cx="88.0265" cy="163.478" r="3.59292" fill="#625D5D" fill-opacity="0.3"/>
<circle cx="88.0265" cy="179.646" r="3.59292" fill="#625D5D" fill-opacity="0.3"/>
<circle cx="177.85" cy="179.646" r="3.59292" fill="#625D5D" fill-opacity="0.3"/>
<circle cx="34.1327" cy="17.9646" r="3.59292" fill="#625D5D" fill-opacity="0.3"/>
<circle cx="34.1327" cy="98.8052" r="3.59292" fill="#625D5D" fill-opacity="0.3"/>
<circle cx="34.1327" cy="34.1327" r="3.59292" fill="#625D5D" fill-opacity="0.3"/>
<circle cx="34.1327" cy="114.973" r="3.59292" fill="#625D5D" fill-opacity="0.3"/>
<circle cx="34.1327" cy="50.3008" r="3.59292" fill="#625D5D" fill-opacity="0.3"/>
<circle cx="34.1327" cy="131.142" r="3.59292" fill="#625D5D" fill-opacity="0.3"/>
<circle cx="34.1327" cy="66.4689" r="3.59292" fill="#625D5D" fill-opacity="0.3"/>
<circle cx="34.1327" cy="147.31" r="3.59292" fill="#625D5D" fill-opacity="0.3"/>
<circle cx="34.1327" cy="82.6371" r="3.59292" fill="#625D5D" fill-opacity="0.3"/>
<circle cx="34.1327" cy="163.478" r="3.59292" fill="#625D5D" fill-opacity="0.3"/>
<circle cx="34.1327" cy="179.646" r="3.59292" fill="#625D5D" fill-opacity="0.3"/>
<circle cx="123.956" cy="179.646" r="3.59292" fill="#625D5D" fill-opacity="0.3"/>
<circle cx="105.991" cy="17.9646" r="3.59292" fill="#625D5D" fill-opacity="0.3"/>
<circle cx="105.991" cy="98.8052" r="3.59292" fill="#625D5D" fill-opacity="0.3"/>
<circle cx="105.991" cy="34.1327" r="3.59292" fill="#625D5D" fill-opacity="0.3"/>
<circle cx="105.991" cy="114.973" r="3.59292" fill="#625D5D" fill-opacity="0.3"/>
<circle cx="105.991" cy="50.3008" r="3.59292" fill="#625D5D" fill-opacity="0.3"/>
<circle cx="105.991" cy="131.142" r="3.59292" fill="#625D5D" fill-opacity="0.3"/>
<circle cx="105.991" cy="66.4689" r="3.59292" fill="#625D5D" fill-opacity="0.3"/>
<circle cx="105.991" cy="147.31" r="3.59292" fill="#625D5D" fill-opacity="0.3"/>
<circle cx="105.991" cy="82.6371" r="3.59292" fill="#625D5D" fill-opacity="0.3"/>
<circle cx="105.991" cy="163.478" r="3.59292" fill="#625D5D" fill-opacity="0.3"/>
<circle cx="52.0973" cy="17.9646" r="3.59292" fill="#625D5D" fill-opacity="0.3"/>
<circle cx="52.0973" cy="98.8052" r="3.59292" fill="#625D5D" fill-opacity="0.3"/>
<circle cx="52.0973" cy="34.1327" r="3.59292" fill="#625D5D" fill-opacity="0.3"/>
<circle cx="52.0973" cy="114.973" r="3.59292" fill="#625D5D" fill-opacity="0.3"/>
<circle cx="52.0973" cy="50.3008" r="3.59292" fill="#625D5D" fill-opacity="0.3"/>
<circle cx="52.0973" cy="131.142" r="3.59292" fill="#625D5D" fill-opacity="0.3"/>
<circle cx="52.0973" cy="66.4689" r="3.59292" fill="#625D5D" fill-opacity="0.3"/>
<circle cx="52.0973" cy="147.31" r="3.59292" fill="#625D5D" fill-opacity="0.3"/>
<circle cx="52.0973" cy="82.6371" r="3.59292" fill="#625D5D" fill-opacity="0.3"/>
<circle cx="52.0973" cy="163.478" r="3.59292" fill="#625D5D" fill-opacity="0.3"/>
<circle cx="52.0973" cy="179.646" r="3.59292" fill="#625D5D" fill-opacity="0.3"/>
<circle cx="141.92" cy="179.646" r="3.59292" fill="#625D5D" fill-opacity="0.3"/>
<circle cx="123.956" cy="17.9646" r="3.59292" fill="#625D5D" fill-opacity="0.3"/>
<circle cx="123.956" cy="98.8052" r="3.59292" fill="#625D5D" fill-opacity="0.3"/>
<circle cx="123.956" cy="34.1327" r="3.59292" fill="#625D5D" fill-opacity="0.3"/>
<circle cx="123.956" cy="114.973" r="3.59292" fill="#625D5D" fill-opacity="0.3"/>
<circle cx="123.956" cy="50.3008" r="3.59292" fill="#625D5D" fill-opacity="0.3"/>
<circle cx="123.956" cy="131.142" r="3.59292" fill="#625D5D" fill-opacity="0.3"/>
<circle cx="123.956" cy="66.4689" r="3.59292" fill="#625D5D" fill-opacity="0.3"/>
<circle cx="123.956" cy="147.31" r="3.59292" fill="#625D5D" fill-opacity="0.3"/>
<circle cx="123.956" cy="82.6371" r="3.59292" fill="#625D5D" fill-opacity="0.3"/>
<circle cx="123.956" cy="163.478" r="3.59292" fill="#625D5D" fill-opacity="0.3"/>
<circle cx="70.0619" cy="17.9646" r="3.59292" fill="#625D5D" fill-opacity="0.3"/>
<circle cx="70.0619" cy="98.8052" r="3.59292" fill="#625D5D" fill-opacity="0.3"/>
<circle cx="70.0619" cy="34.1327" r="3.59292" fill="#625D5D" fill-opacity="0.3"/>
<circle cx="70.0619" cy="114.973" r="3.59292" fill="#625D5D" fill-opacity="0.3"/>
<circle cx="70.0619" cy="50.3008" r="3.59292" fill="#625D5D" fill-opacity="0.3"/>
<circle cx="70.0619" cy="131.142" r="3.59292" fill="#625D5D" fill-opacity="0.3"/>
<circle cx="70.0619" cy="66.4689" r="3.59292" fill="#625D5D" fill-opacity="0.3"/>
<circle cx="70.0619" cy="147.31" r="3.59292" fill="#625D5D" fill-opacity="0.3"/>
<circle cx="70.0619" cy="82.6371" r="3.59292" fill="#625D5D" fill-opacity="0.3"/>
<circle cx="70.0619" cy="163.478" r="3.59292" fill="#625D5D" fill-opacity="0.3"/>
<circle cx="70.0619" cy="179.646" r="3.59292" fill="#625D5D" fill-opacity="0.3"/>
<circle cx="159.885" cy="179.646" r="3.59292" fill="#625D5D" fill-opacity="0.3"/>
<circle cx="141.92" cy="17.9646" r="3.59292" fill="#625D5D" fill-opacity="0.3"/>
<circle cx="141.92" cy="98.8052" r="3.59292" fill="#625D5D" fill-opacity="0.3"/>
<circle cx="141.92" cy="34.1327" r="3.59292" fill="#625D5D" fill-opacity="0.3"/>
<circle cx="141.92" cy="114.973" r="3.59292" fill="#625D5D" fill-opacity="0.3"/>
<circle cx="141.92" cy="50.3008" r="3.59292" fill="#625D5D" fill-opacity="0.3"/>
<circle cx="141.92" cy="131.142" r="3.59292" fill="#625D5D" fill-opacity="0.3"/>
<circle cx="141.92" cy="66.4689" r="3.59292" fill="#625D5D" fill-opacity="0.3"/>
<circle cx="141.92" cy="147.31" r="3.59292" fill="#625D5D" fill-opacity="0.3"/>
<circle cx="141.92" cy="82.6371" r="3.59292" fill="#625D5D" fill-opacity="0.3"/>
<circle cx="141.92" cy="163.478" r="3.59292" fill="#625D5D" fill-opacity="0.3"/>
<circle cx="159.885" cy="17.9646" r="3.59292" fill="#625D5D" fill-opacity="0.3"/>
<circle cx="159.885" cy="98.8052" r="3.59292" fill="#625D5D" fill-opacity="0.3"/>
<circle cx="159.885" cy="34.1327" r="3.59292" fill="#625D5D" fill-opacity="0.3"/>
<circle cx="159.885" cy="114.973" r="3.59292" fill="#625D5D" fill-opacity="0.3"/>
<circle cx="159.885" cy="50.3008" r="3.59292" fill="#625D5D" fill-opacity="0.3"/>
<circle cx="159.885" cy="131.142" r="3.59292" fill="#625D5D" fill-opacity="0.3"/>
<circle cx="159.885" cy="66.4689" r="3.59292" fill="#625D5D" fill-opacity="0.3"/>
<circle cx="159.885" cy="147.31" r="3.59292" fill="#625D5D" fill-opacity="0.3"/>
<circle cx="159.885" cy="82.6371" r="3.59292" fill="#625D5D" fill-opacity="0.3"/>
<circle cx="159.885" cy="163.478" r="3.59292" fill="#625D5D" fill-opacity="0.3"/>
<circle cx="177.85" cy="17.9646" r="3.59292" fill="#625D5D" fill-opacity="0.3"/>
<circle cx="177.85" cy="98.8052" r="3.59292" fill="#625D5D" fill-opacity="0.3"/>
<circle cx="177.85" cy="34.1327" r="3.59292" fill="#625D5D" fill-opacity="0.3"/>
<circle cx="177.85" cy="114.973" r="3.59292" fill="#625D5D" fill-opacity="0.3"/>
<circle cx="177.85" cy="50.3008" r="3.59292" fill="#625D5D" fill-opacity="0.3"/>
<circle cx="177.85" cy="131.142" r="3.59292" fill="#625D5D" fill-opacity="0.3"/>
<circle cx="177.85" cy="66.4689" r="3.59292" fill="#625D5D" fill-opacity="0.3"/>
<circle cx="177.85" cy="147.31" r="3.59292" fill="#625D5D" fill-opacity="0.3"/>
<circle cx="177.85" cy="82.6371" r="3.59292" fill="#625D5D" fill-opacity="0.3"/>
<circle cx="177.85" cy="163.478" r="3.59292" fill="#625D5D" fill-opacity="0.3"/>
</svg>
