<svg width="229" height="78" viewBox="0 0 229 78" fill="none" xmlns="http://www.w3.org/2000/svg">
<path d="M176.364 11.4428C140.143 -3.84022 70.4936 -1.25462 34.7423 12.1188C18.4603 18.2095 -11.5632 35.8575 6.70626 52.5195C9.92852 55.4584 13.8453 57.8459 17.8977 59.9119C62.4964 82.6475 124.7 80.3321 172.564 66.7281C179.703 64.6992 186.727 62.2907 193.19 59.0171C198.023 56.5688 202.696 53.5342 206.46 49.9928C217.478 39.6255 214.6 29.1922 202.745 20.4029C189.001 10.2124 170.205 7.05445 152.47 5.32496C136.962 3.81268 121.473 3.52229 105.892 4.13949C76.67 5.29686 42.9938 7.13844 18.4853 21.0707C7.78068 27.1561 -3.72008 40.1595 5.45573 50.684C15.3989 62.0884 38.8438 65.7812 54.613 68.1877C97.1535 74.6801 164.464 71.4609 203.213 54.4239C207.392 52.5867 211.625 50.8745 215.363 48.4586C218.316 46.5496 221.144 44.3728 223.598 42.0171C240.983 25.3224 202.189 14.8256 188.507 13.0229C145.466 7.35208 81.7638 -0.831526 42.1254 14.254" stroke="#625D5D" stroke-width="2" stroke-miterlimit="1.5" stroke-linecap="round" stroke-linejoin="round"/>
</svg>
